<mxfile host="app.diagrams.net" modified="2023-04-29T19:26:31.240Z" agent="Mozilla/5.0 (X11; Linux x86_64) AppleWebKit/537.36 (KHTML, like Gecko) Chrome/105.0.0.0 Safari/537.36" version="21.2.3" etag="KmrEmllfSFA-GlGxH6-m" type="github">
  <diagram name="Page-1" id="o5cqLElM0J39Hm6M06Qt">
    <mxGraphModel>
      <root>
        <mxCell id="0" />
        <mxCell id="1" parent="0" />
      </root>
    </mxGraphModel>
  </diagram>
</mxfile>
